<?xml version="1.0" encoding="UTF-8"?><svg xmlns="http://www.w3.org/2000/svg" viewBox="0 0 252.39 264.6"><defs><style>.e,.f{fill:#fff;}.f{fill-rule:evenodd;}</style></defs><g id="a"/><g id="b"><g id="c"><g><path class="e" d="M153.3,17.34s.02,.06,.04,.09c.88,2.01,.89,1.85-.61,6.4-.24,.72-.46,1.43-.65,2.07,51.26,4.25,91.68,47.32,91.68,99.67,0,55.15-44.87,100.02-100.02,100.02-8.05,0-15.88-.96-23.38-2.77-.29,.39-.61,.79-.9,1.09-1.61,1.7-3.28,4.69-3.68,6.57,0,.03-.01,.06-.02,.09,8.93,2.37,18.3,3.64,27.98,3.64,60,0,108.65-48.64,108.65-108.65,0-56.78-43.56-103.38-99.09-108.22Z"/><path class="e" d="M51.07,171.13c-.91-1.45-.91-4.38,0-6.49,.11-.26,.21-.49,.3-.72-4.92-11.82-7.65-24.77-7.65-38.35s2.89-27.31,8.1-39.41c-1-1.64-1.27-2.46-1.27-3.45,0-1.26-.53-2.46-1.96-4.43-.51-.71-.93-1.41-.93-1.55s-.21-.52-.46-.84c-.01-.02-.04-.06-.07-.08-7.7,14.91-12.05,31.83-12.05,49.77,0,19.18,4.98,37.2,13.7,52.85,.31-.57,.69-1.21,1.09-1.82,1.74-2.66,2.05-4.09,1.18-5.46Z"/><path class="e" d="M90.56,215.95c.11-.84,.49-2.32,.85-3.29,.19-.51,.37-1.03,.55-1.56-1.16-.71-2.3-1.44-3.43-2.19-.12,.29-.25,.61-.39,.98-.37,.99-1.22,2.5-1.88,3.34-.66,.84-1.31,1.92-1.43,2.4-.08,.33-.24,.65-.42,.95,1.45,.95,2.93,1.87,4.44,2.75l.05-.06c1.12-1.37,1.51-2.16,1.66-3.32Z"/><path class="e" d="M93.29,205.32l-1.78,.72c-.44,.18-.8,.34-1.11,.52,.81,.54,1.63,1.06,2.45,1.57,.26-.98,.43-1.76,.43-2.1v-.71Z"/></g><g><path class="f" d="M146.34,33.13c.95-1.28,2.02-2.72,2.37-3.21,.35-.49,.73-1.47,.84-2.17,.11-.71,.72-2.94,1.36-4.97l1.16-3.69-.68-1.29c-.39-.75-.8-2.38-.97-3.86-.33-2.9-1.32-4.25-4-5.42-1.46-.64-3.43-2.79-4.16-4.54-.54-1.29-1-1.39-2.16-.48-.94,.74-1.54,.81-2.11,.24-.22-.22-.79-.4-1.27-.4-.65,0-.89-.18-.97-.72-.15-1.08-.92-.87-1.78,.49-1.19,1.89-1.62,2.12-3.92,2.07-2.05-.04-2.07-.04-2.32,.96-.14,.55-.47,1.11-.73,1.24-1.08,.55-2.84,1.26-3.14,1.26-.18,0-.78,.8-1.34,1.77-1.13,1.97-2.39,3.27-7.52,7.73-4.21,3.66-4.5,3.76-6.68,2.41-.9-.56-2.07-1.11-2.6-1.21-.61-.12-1.17-.55-1.54-1.19-.72-1.23-2.6-2.44-2.81-1.81-.67,2.02-5.14,2.75-8.62,1.43-2.52-.96-5.93,.07-8.18,2.49-1.71,1.84-2.13,1.7-5.87-1.89-2.92-2.8-4.78-4.38-8.53-7.22-.82-.62-1.78-.97-3.32-1.18-2.46-.34-5.42-2.53-6.69-4.93-.35-.66-.77-1.2-.93-1.2s-.69-.36-1.17-.8c-.67-.62-1.21-.8-2.4-.8-1.55,0-2.21-.37-2.88-1.63-.44-.83-.63-.79-1.82,.41-.89,.89-1.12,.98-1.79,.67-.67-.31-.88-.23-1.57,.56-.7,.79-.97,.89-2.07,.74-1.54-.21-1.79,.04-2.99,3.02l-.88,2.18h-1.31c-1.95,0-2.92,.89-3.68,3.38-.35,1.15-.96,2.73-1.37,3.53-.4,.79-.81,2.28-.91,3.31-.1,1.03-.45,2.33-.79,2.89-.76,1.28-.71,18.41,.05,20.46,.23,.62,.71,2.28,1.06,3.7,.36,1.41,.94,3.66,1.31,4.98,.36,1.32,.81,3.24,.99,4.26,.36,2.01,1.75,4.55,4.29,7.83,1.61,2.07,1.78,2.62,1.13,3.65-.34,.55-.24,.79,.76,1.84,1.3,1.36,3.35,4.04,5.26,6.86,.71,1.04,1.61,2.37,2,2.95,1.5,2.19,2.33,4.23,2.15,5.25-.16,.85,.22,1.58,2.73,5.3,1.79,2.64,2.98,4.75,3.09,5.44,.1,.62,.38,1.56,.62,2.09,.24,.53,.52,1.61,.62,2.41,.1,.8,.33,2.24,.51,3.21,.23,1.24,.23,2.6-.02,4.58-.35,2.81-.35,2.82,.5,3.83,.78,.93,.84,1.17,.64,2.86-.21,1.8-.19,1.85,.77,2.42,1.14,.67,1.48,1.33,.99,1.91-.19,.23-.47,.82-.63,1.33-.16,.5-.52,1.56-.81,2.34-.36,.99-.43,1.63-.22,2.09,.16,.36,.49,1.06,.72,1.55,.38,.8,.34,1.08-.42,2.63-1.17,2.39-1.43,4.57-.71,6.08,.55,1.16,.55,1.62-.02,4.73-.19,1.02-.12,1.18,.51,1.35,1.02,.27,.73,2.43-.62,4.62-.75,1.22-.97,1.88-.82,2.48,.14,.58-.02,1.12-.55,1.87-1.32,1.85-3.15,6.1-3.84,8.93-.15,.62-.46,1.92-.69,2.89-.23,.97-.97,2.89-1.64,4.27-1.35,2.77-1.38,3.86-.17,6.56,.91,2.01,.62,3.69-.98,5.7-1.07,1.34-1.84,4.38-2.91,11.43-.36,2.39-.87,5.71-1.13,7.39-.63,4.08-1.06,8.71-1.42,15.01-.16,2.87-.38,5.35-.48,5.51-.1,.17-.55,1.7-.99,3.42-.93,3.57-2.11,6.28-3.39,7.76-.57,.66-1.01,1.69-1.25,2.89-.2,1.03-.53,2.52-.74,3.31-.53,2-.44,5.26,.2,7.55,.78,2.77,1.15,4.76,1.48,7.92,.21,2.02,.5,3.12,1.06,4.02,.43,.68,.86,1.77,.97,2.43,.72,4.55,5.52,7.25,15.28,8.6,1.29,.18,2.65,.48,3.01,.68,.76,.4,2.8,.16,4.06-.49,.47-.24,1.55-.53,2.4-.64,3.75-.5,6.65-1.73,6.65-2.81,0-.55,.53-1.98,1.18-3.18,1.06-1.96,1.13-2.25,.72-2.81-.25-.34-1.09-1.5-1.87-2.57-1.3-1.79-1.7-2.08-4.94-3.66-3.83-1.86-5.06-2.96-5.06-4.52,0-.55-.16-1.44-.36-1.99-.58-1.6,.57-5.33,1.83-5.95,.67-.33,1.22-1.06,1.86-2.46,1.22-2.66,3.89-6.3,4.97-6.76,1.37-.59,3.91-4.86,3.91-6.59,0-1.62,3.09-4.41,4.42-3.99,.49,.16,.76-.12,1.38-1.45,.42-.9,1.16-1.95,1.63-2.33,.55-.44,1.24-1.68,1.91-3.4,1.17-3.05,1.94-4,3.65-4.47,1.29-.36,7.38-3.69,9.18-5.03,1-.74,1.14-.77,1.24-.27,.11,.54-.87,1.59-3.91,4.18-.99,.84-1.19,1.23-1.19,2.25,0,1.38-.94,4.59-1.87,6.44-.34,.67-.71,2.15-.84,3.29-.26,2.33-.7,3.35-1.95,4.52-1.26,1.17-1.53,1.81-1.11,2.6,.29,.55,.2,1.03-.48,2.56-.53,1.18-.98,2.97-1.19,4.8l-.34,2.92,1,1.99c.58,1.15,.93,2.26,.83,2.63-.09,.35,.12,1.15,.48,1.77,.36,.62,1.32,2.45,2.14,4.07,2.58,5.12,4.46,6.43,10.72,7.48,.97,.16,2.56,.45,3.54,.64,.97,.19,2.56,.5,3.53,.68,.97,.19,3.88,.42,6.46,.52l4.69,.18,2.34-1.17c1.29-.64,2.65-1.17,3.04-1.17,.46,0,.89-.36,1.26-1.04,.3-.57,.76-1.41,1.02-1.85,1.93-3.34-3.08-8.78-9.3-10.08-7.28-1.52-7.82-7.73-1.29-14.82,.65-.71,1.42-1.94,1.72-2.73,.41-1.11,.83-1.6,1.79-2.1,1.31-.68,1.87-1.47,4.29-6.07,.73-1.37,1.44-2.66,1.6-2.86,.15-.2,.69-1.36,1.2-2.58,1.07-2.55,1.51-3.09,2.56-3.09,.66,0,.8-.22,1.13-1.85,.2-1.02,.64-3.15,.96-4.74,.33-1.59,.67-3.58,.77-4.41,.1-.84,.53-2.35,.95-3.37s.94-2.58,1.15-3.46c.28-1.22,.6-1.73,1.29-2.13,1.51-.86,2.16-8.5,1.15-13.45l-.53-2.62,.9-1.29c.91-1.31,.99-1.84,.8-5.24-.05-.88,.09-3.2,.31-5.14,.43-3.83,.07-11.71-.71-15.37-.28-1.35-.3-2.22-.07-3.11,.29-1.08,.2-1.54-.69-3.75-2.25-5.57-2.68-9.27-1.17-9.91,.93-.4,.82-3.74-.27-8.02-.8-3.15-.8-3.61,0-3.87,1.05-.33,.67-2.38-1.09-5.89-.41-.83-.86-2.08-.99-2.79-.26-1.42-1.41-4.96-1.78-5.46-.58-.8-1.42-5.37-1.42-7.72,0-2.71,.17-3.2,2.22-6.48,.79-1.27,.96-1.89,.96-3.47,0-1.67,.21-2.33,1.56-4.98,1.93-3.77,3.63-8.91,3.13-9.42-.71-.71-.47-2.19,1.28-7.85,.7-2.26,.7-2.35,.13-2.98-.87-.96-.28-8.02,.81-9.79,.49-.79,.81-1.99,.98-3.64,.31-3.03,1.01-4.68,3.23-7.68Zm-14.38-19.1c.73-.37,1.44-.87,1.59-1.11,.32-.54,1.57-.58,2.08-.06,.29,.29,.56,.21,1.17-.36,.84-.79,1.79-.72,1.79,.13,0,.73,.63,.59,1.33-.3,.79-1,1.56-.74,1.56,.54,0,.69,.41,1.42,1.42,2.54,2.51,2.79,3.37,5.63,2.34,7.67-.62,1.22-1.97,1.11-2.08-.16-.15-1.74-.72-3.3-1.29-3.53-2.81-1.12-4.82-1.31-5.68-.51-1.05,.98-1.86,.96-2.36-.05-.64-1.31-.98-1.1-2.03,1.22-1.34,2.95-2.79,3.14-3.51,.46-.68-2.54,.7-4.98,3.65-6.47Zm-36.42,22.8c.79-.72,1.91-1.5,2.47-1.74,.56-.24,1.12-.74,1.24-1.11,.15-.49,.39-.62,.83-.49,.34,.11,.9,.28,1.25,.39,.49,.15,.64,.05,.64-.43,0-.92,.32-1.09,1.08-.56,.97,.68,1.12,.6,1.35-.65,.59-3.12,4.96,2.27,4.96,6.11,0,3.62-2.77,5.51-4.96,3.39-.94-.9-5.68-2.59-7.29-2.59-.34,0-1.15-.23-1.81-.51l-1.2-.51,1.45-1.3Zm9.96,11.51c0,2.3-.17,2.61-1.94,3.51-3.88,1.96-7.01,1.04-8.48-2.49-1.13-2.7,.16-6.78,2.39-7.54,4.23-1.44,8.03,1.65,8.03,6.52ZM56.4,21.8c-.48,0-1.28,.28-1.79,.62-1.14,.75-1.59,.6-2.46-.81-.83-1.35-1.11-1.37-1.55-.09-.31,.89-.45,.98-1.3,.81-2.06-.41-2.34,1.07-.68,3.48,2.35,3.41,.12,7.71-2.51,4.82-.66-.72-1.32-1.12-1.84-1.12-1.3,0-2.06-.57-2.06-1.54,0-.48-.29-1.42-.64-2.08-1.05-1.95-.88-4.43,.48-7.08,.62-1.2,1.12-2.38,1.12-2.61,0-.71,.93-1.31,1.36-.87,1.2,1.2,3.67-.5,4.27-2.94,.31-1.25,.42-1.36,1.51-1.45,.83-.07,1.41-.38,1.97-1.05,.95-1.13,1.54-1.19,2.24-.22l.52,.72,.88-1.05c2.72-3.23,4.95,2.99,2.84,7.93-.48,1.13-.81,2.32-.73,2.63,.23,.87-.66,1.9-1.65,1.9Zm30.65,28.91c-6.26,6.52-10.65,15.2-6.82,13.46,1.18-.54,1.57-.09,1.16,1.33-1.05,3.67-.31,5.35,1.8,4.1l1.2-.71-.28,1.11c-.26,1.03-.29,3.07-.08,5.77l.09,1.12-1.97,.09-1.97,.09-.28-1.51c-.39-2.13-.84-2.07-2.57,.34-1.89,2.63-2.22,2.65-2.48,.12-.28-2.7-.63-2.96-1.93-1.4-1.14,1.35-1.81,1.34-1.81-.03,0-.62-.1-.74-.4-.49-.22,.18-.76,.38-1.2,.44-.6,.08-.98,.51-1.53,1.72-1,2.19-1.18,2.49-1.52,2.53-.77,.1-.87-3.7-.3-11.61,.2-2.84-.14-2.97-1.49-.56-1.87,3.32-2.27,2.26-1.39-3.65,.51-3.39,.52-8.11,.03-8.6-.14-.14-.89,.08-1.66,.49-2.01,1.06-2.31,.66-1.11-1.45,1.19-2.09,1.89-4.52,1.9-6.6v-1.5l-1.03,.3c-1.07,.31-1.96-.09-1.36-.6,.17-.14,1.06-.88,1.99-1.64,1.55-1.26,2.16-2.28,1.37-2.28-.58,0-.31-.78,.66-1.92,1.51-1.77,1.13-2.9-.98-2.9-1.32,0-1.93-.46-1.93-1.47,0-.39-.42-1.62-.95-2.75-2.01-4.33-2.52-10.79-1.02-12.82,.38-.51,.99-1.75,1.37-2.76,.79-2.12,2.27-3.65,3.53-3.65,.47,0,.94-.22,1.04-.48,.22-.58,.2-.58,2.5-.03,5.86,1.4,14.49,9.7,11.82,11.37-.6,.37-.81,.26-2.17-1.15-2.74-2.83-5.95-4.25-4-1.77,2.12,2.71,1.96,3.76-.41,2.69-1.31-.59-4.33-3.55-4.33-4.25,0-.22-.33-.08-.74,.31-.97,.91-1.32,.88-2.1-.19-1.3-1.78-1.25-.26,.1,2.89,.28,.65-.74,.81-1.34,.2-.81-.81-.97-.06-.45,2.01,.58,2.3,.55,2.85-.15,2.85-.59,0-.58,.64,.02,1.5,.26,.37,.86,1.71,1.32,2.96,.78,2.1,1.41,2.93,1.41,1.84,0-.96,1-.8,2.27,.34,1.54,1.39,1.52,1.64-.3,3.04-.91,.7-1.55,1.52-1.82,2.32-.23,.68-.87,1.8-1.42,2.49-.86,1.07-1.15,1.95-1.99,6.08-1.07,5.21-1.06,5.45,.17,4.65,1.28-.84,1.6-.37,1.38,2.05-.23,2.5,.11,3.42,.83,2.25,5.34-8.8,10.97-13.17,19.2-14.9,7.1-1.49,8.09,2.61,2.12,8.83Zm47.34,14.33l-1.42,.35v2.76c0,3.1-.2,3.55-1.14,2.54-1.21-1.3-1.59-.93-1.38,1.35,.38,4.12-1.55,6.72-2.35,3.15-.42-1.9-1.18-2.95-2.13-2.95-.48,0-.58,.15-.43,.64,.11,.35,.29,.93,.4,1.28,.24,.8-.4,.85-1.43,.13-1.05-.74-1.53-.4-2.14,1.53-1.21,3.83-1.72,4.37-2.38,2.48-.48-1.39-.92-1.11-2.84,1.81-1.17,1.79-1.95,2.64-2.57,2.83-.49,.15-1.57,.62-2.39,1.04-1.84,.95-1.74,.95-2.7-.08-.73-.78-.86-.82-1.61-.42-.65,.35-.93,.36-1.36,.05-.9-.65-2.1-1.1-3.11-1.17-1.51-.12-4.22-1.66-5.88-3.34-2.13-2.16-3.92-4.41-3.92-4.93,0-.83-.99-1.86-1.79-1.86-1,0-.99-.19,.18-3.11,1.09-2.72,1.06-2.95-.3-2.75-1.12,.16-1.03-.82,.28-3.03,.72-1.22,.84-2.21,.32-2.53-.4-.24,.2-1.11,.78-1.12,.98-.03,1.62-.92,1.08-1.52-.67-.74-.41-1.11,1.38-1.97,.79-.38,1.81-.91,2.25-1.16,.44-.26,1.24-.47,1.77-.48,2.9-.03,5.83-1.64,7.51-4.13,3.11-4.61,3.67-5.37,4.16-5.64,.29-.16,.82-.63,1.17-1.05,.69-.83,2.5-1.28,3.82-.95,1.03,.26,4.05,4.52,4.05,5.72,0,.86,1.94,2.77,3.3,3.26,.31,.11,.56,.34,.56,.52,0,.18-.55,.12-1.33-.15-3.51-1.24-6.45,.05-7.93,3.48-.81,1.88-.33,2.64,2.46,3.93,.95,.44,1.82,1.13,2.17,1.73,.73,1.23,1.14,1.24,3.23,.04,1.61-.93,3-2.42,3-3.24,0-.4,.46-.14,.51,.29,.01,.12,.21,.65,.44,1.18,1.06,2.45,.12,7.15-1.66,8.32-1.99,1.3-2.61,1.08-3.29-1.21-.34-1.15-.87-2.41-1.17-2.81l-.54-.72-1.56,.87c-7.51,4.17-13.92,5.89-17.41,4.67-2.26-.79-1.64,.03,.97,1.28,1.54,.73,3.1,1.73,3.47,2.21,5.23,6.77,11.36,8.06,11.21,2.36-.07-2.69,.35-3.37,2.41-3.93,5.21-1.41,5.62-1.59,6.93-3.08,2.17-2.46,2.4-4.7,1.01-9.73-.36-1.33-.74-2.8-.84-3.27-.1-.47-.38-1.07-.64-1.32-.4-.4-.29-.44,.88-.32,2.38,.26,2.63-.18,2.63-4.62,0-4.29-.53-6.28-2.67-10.07-.65-1.15-2.05-3.82-3.11-5.94l-1.93-3.85-1.42-.03c-2.91-.07-3.95-2.42-2.17-4.91,.58-.82,1.48-2.47,1.99-3.68,.89-2.12,2.72-4.12,4.83-5.3,2.06-1.15,2.57,.02,2.57,5.91,0,3.51,.11,5.04,.4,5.33,.57,.57,.51,.86-.4,1.94-.48,.57-.81,1.36-.81,1.97,0,.56-.22,1.65-.49,2.42-.56,1.61-.42,2.24,.89,4.16,2.08,3.04,3.38,8.1,3.59,14.03,.1,2.68,.31,3.77,1.29,6.59,1.73,4.98,2.03,5.55,3.27,6.36,1.42,.93,1.27,1.41-.54,1.86Zm-8.42-14.88c-.34-2.97-2.93-3.61-3.88-.96-.24,.67-.85,.43-.85-.33,0-.28,.34-.96,.77-1.52,1.84-2.41,4.69-.43,4.7,3.27,0,1.73-.12,1.91-.96,1.36-.38-.25-.39-.31-.04-.32,.34,0,.4-.36,.27-1.52Zm-.83-.97c0,.36-.33,.63-.74,.63-.36,0-.72-.33-.72-.69s.35-.69,.72-.69,.74,.29,.74,.76Zm-.22-3.45c-1.38-.74-1.56-.76-2.41-.32-2.78,1.44-3.8-.12-2.99-4.56,.28-1.56,.72-3.16,.97-3.56,.97-1.54,3.32-.14,4.09,2.43,.24,.83,.97,2.53,1.61,3.79,1.7,3.33,1.5,3.69-1.26,2.22Zm-.79,8.36c0,.57-1.95,.65-2.93,.13-.51-.27-.57-.44-.26-.8,.72-.87,3.19-.35,3.19,.68Zm-9.64,21.03c-1.2,1.2-3.76,.46-5.02-1.46-.66-1-.34-1.77,.87-2.11,3.24-.91,6.13,1.59,4.15,3.57Zm27.21-45.39c-1.31,2.09-7.78,1.64-7.78-.54,0-1.21,2.4-2.91,4.12-2.91,.74,0,1.56-.15,1.82-.32,.7-.46,1.83-.39,2.91,.17,1.25,.65,1.28,1.85,.06,2.63-.49,.31-1,.75-1.14,.97Z"/><path class="f" d="M98.05,43.85c-3.14,3.47,.19,8.47,4.24,6.37,1.79-.93,1.82-3.94,.05-5.7-1.22-1.23-3.48-1.58-4.3-.67Zm3.59,3.18c-1.05,.82-2.58-.58-1.73-1.61,.52-.63,1.52-.47,1.83-.02,.45,.66,.33,1.29-.1,1.63Z"/><path class="f" d="M42.86,220.31c.16-.6,.58-2.24,.94-3.65,.4-1.57,.79-4.63,1-7.87,.33-5.25,1.17-12.56,2.07-18.15,.26-1.59,.56-3.71,.67-4.7l.2-1.81-2.26,.05c-1.65,.03-2.43,.2-2.88,.61-.94,.85-2.14,.67-3.76-.57-1.87-1.43-2.02-1.46-2.52-.48-.58,1.13-1.9,1.23-2.72,.2-.35-.44-1.03-.9-1.51-1.02-.48-.12-.95-.42-1.05-.66-.09-.24-.5-.44-.9-.44-.93,0-1.37-.54-1.88-2.3-.34-1.17-.58-1.46-1.52-1.75-1.17-.37-2.56-2.44-2.56-3.83,0-1.29-.8-2.01-1.52-1.35-.91,.83-1.2,.71-2.47-1.01-1.16-1.59-2.75-2.61-4.04-2.61-1.19,0-2.68-.92-3.68-2.26-1.09-1.47-1.16-1.5-1.95-.63-.32,.35-.82,.64-1.1,.64-.87,0-1.85,.89-2.04,1.84-.27,1.33-1.38,2.39-2.27,2.16-.46-.11-.89,0-1.15,.32-.23,.28-.83,.5-1.33,.5-1.17,0-1.44,.88-2.05,6.75-1.12,10.66-.8,13.45,1.93,16.64,.61,.71,1.7,2.42,2.43,3.81s1.5,2.74,1.72,3c.21,.26,.58,.96,.81,1.54,.23,.58,.83,1.62,1.33,2.31,.5,.69,.99,1.59,1.1,1.99,.26,1.04,2.32,3.79,2.83,3.79,.23,0,1.06,.34,1.84,.76,.78,.42,2.58,1.38,3.99,2.13,3.21,1.72,5.4,2.89,6.79,3.61,.85,.45,1.08,.76,1.08,1.52,0,1.46,.65,1.55,8.67,1.19,1.34-.06,1.45,0,1.54,.79l.1,.85,1.27-.5c1.06-.42,1.49-.43,2.59-.1,1.51,.45,1.8,.28,2.22-1.3ZM8.2,185.96c-1.27,.61-1.39,.82-1.91,3.27-.54,2.59-2.23,1.98-2.66-.95-.6-4.1-.36-7.84,.54-8.56,.45-.36,.82-.89,.82-1.18,0-.8,.83-2.24,1.5-2.59,.39-.21,.6-.63,.6-1.21,0-.64,.19-.98,.67-1.2,.37-.17,.98-.77,1.35-1.34,.69-1.06,1.09-1.26,1.42-.73,.1,.16,.51,.3,.9,.3s.82,.19,.95,.42c.13,.23,.71,.64,1.29,.91,2.16,1.02,3.47,1.76,4.26,2.43,.45,.38,1.29,.84,1.87,1.03,1.71,.56,1.2,3.64-.67,4.07-1.07,.25-4.4,1.2-5.9,1.68-.67,.22-1.75,.96-2.48,1.73-.71,.74-1.86,1.61-2.55,1.95Zm18.43,7.13c-1.52-.63-3.14,.7-3.14,2.56,0,1.03-1.33,2.56-2.22,2.56-1.02,0-1.33,.74-.65,1.6,.76,.96,.77,1.99,.03,2.39-.85,.45-.75,1.81,.19,2.55,.67,.53,.72,.68,.43,1.32-.46,1.01-.42,1.2,.36,1.61,1.47,.78,3.36,3.93,2.35,3.93s-5.6-2.64-8-4.56c-3.67-2.94-4.11-3.84-2.48-5.19,.66-.55,.54-1.22-.3-1.67-.72-.38-1.66-1.94-1.66-2.74,0-.65,.94-1.38,1.41-1.09,.52,.32,.6-.42,.14-1.3-.35-.68-.41-1.23-.25-2.22,.12-.72,.19-1.57,.16-1.89-.03-.37,.25-.74,.81-1.06,.47-.27,.86-.66,.86-.87,0-1.78,5.15-3.47,7.12-2.35,1.13,.65,2.85,.56,2.85-.14s.9-.77,1.42-.14c.39,.47,1.58,.58,1.84,.17,.58-.94,4.47-.4,4.67,.65,.11,.58-2.32,3.05-3.71,3.77-.6,.31-.8,.62-.8,1.24,0,1.05-.39,1.29-1.41,.87Zm12.4,14.84c1.83,4.75,.53,7.63-3.46,7.62-1.77,0-2.29-.27-2.09-1.05,.16-.63-.44-1.1-1.39-1.1-.67,0-1.11-.75-1.11-1.89,0-.52-.3-1.23-.77-1.84-1.08-1.39-1.19-1.85-.56-2.29,.52-.36,.51-.4-.31-1.42-1.92-2.41-2.07-3.88-.38-3.88,.55,0,.95-.14,.97-.34,.02-.19,.05-.82,.07-1.42,.03-.97,.11-1.09,.8-1.17,.54-.06,.93-.37,1.32-1.03,.51-.86,.65-.93,1.66-.86,1.11,.08,1.11,.08,1.19-.93,.05-.56,.23-1.03,.4-1.05,.18-.02,.44-.07,.59-.1,.15-.03,.46-.08,.69-.09,.23-.02,.6-.39,.81-.82,.21-.43,.99-1.21,1.73-1.72,2.68-1.84,3.01,.72,.8,6.14-1.57,3.86-1.71,4.29-1.77,5.69-.04,.95,.18,1.95,.79,3.54Z"/></g><g id="d"><g><g><path class="e" d="M185.19,91.48v33.95h-8.27v-20.36l-7.59,20.36h-6.67l-7.64-20.41v20.41h-8.27v-33.95h9.77l9.53,23.5,9.43-23.5h9.72Z"/><path class="e" d="M215.56,91.48v6.62h-9v27.32h-8.27v-27.32h-9v-6.62h26.26Z"/><path class="e" d="M227.98,91.48v33.95h-8.27v-33.95h8.27Z"/></g><g><path class="e" d="M148.15,151.47c2.31-1.91,4.14-3.48,5.47-4.71,1.33-1.23,2.46-2.51,3.38-3.86s1.38-2.66,1.38-3.93c0-.97-.22-1.72-.67-2.27-.45-.54-1.12-.81-2.02-.81s-1.6,.34-2.11,1.01-.76,1.62-.76,2.85h-5.84c.05-2.01,.48-3.68,1.29-5.03,.81-1.35,1.89-2.34,3.22-2.98,1.33-.64,2.82-.96,4.44-.96,2.81,0,4.93,.72,6.36,2.16,1.43,1.44,2.14,3.32,2.14,5.63,0,2.53-.86,4.87-2.59,7.03s-3.92,4.27-6.59,6.32h9.56v4.92h-17.78v-4.5c.8-.64,1.17-.93,1.1-.89Z"/><path class="e" d="M169.84,134.33c1.57-2.34,4.1-3.51,7.6-3.51s6.03,1.17,7.6,3.51c1.57,2.34,2.36,5.54,2.36,9.6s-.79,7.33-2.36,9.67c-1.57,2.34-4.1,3.51-7.6,3.51s-6.03-1.17-7.6-3.51c-1.57-2.34-2.36-5.56-2.36-9.67s.78-7.26,2.36-9.6Zm10.82,4.09c-.52-1.29-1.59-1.93-3.22-1.93s-2.7,.64-3.22,1.93c-.52,1.29-.78,3.12-.78,5.51,0,1.61,.09,2.93,.28,3.98,.19,1.05,.57,1.9,1.15,2.55,.58,.65,1.43,.97,2.57,.97s1.99-.32,2.57-.97c.58-.65,.96-1.5,1.15-2.55,.19-1.05,.28-2.38,.28-3.98,0-2.38-.26-4.22-.78-5.51Z"/><path class="e" d="M191.46,151.47c2.31-1.91,4.14-3.48,5.47-4.71,1.33-1.23,2.46-2.51,3.38-3.86s1.38-2.66,1.38-3.93c0-.97-.22-1.72-.67-2.27-.45-.54-1.12-.81-2.02-.81s-1.6,.34-2.11,1.01-.76,1.62-.76,2.85h-5.84c.05-2.01,.48-3.68,1.29-5.03,.81-1.35,1.89-2.34,3.22-2.98,1.33-.64,2.82-.96,4.44-.96,2.81,0,4.93,.72,6.36,2.16,1.43,1.44,2.14,3.32,2.14,5.63,0,2.53-.86,4.87-2.59,7.03s-3.92,4.27-6.59,6.32h9.56v4.92h-17.78v-4.5c.8-.64,1.17-.93,1.1-.89Z"/><path class="e" d="M213.49,132.81c1.56-1.37,3.67-2.05,6.34-2.05,1.77,0,3.29,.31,4.55,.92,1.26,.61,2.22,1.45,2.87,2.51,.65,1.06,.97,2.25,.97,3.58,0,1.56-.39,2.83-1.17,3.81s-1.69,1.65-2.73,2v.14c1.35,.45,2.41,1.19,3.19,2.23s1.17,2.37,1.17,4c0,1.46-.34,2.76-1.01,3.88s-1.65,2-2.94,2.64c-1.29,.64-2.82,.96-4.59,.96-2.83,0-5.09-.7-6.78-2.09-1.69-1.39-2.58-3.49-2.67-6.3h5.88c.02,1.04,.32,1.86,.89,2.46,.57,.6,1.39,.9,2.48,.9,.92,0,1.63-.27,2.14-.8s.76-1.23,.76-2.11c0-1.13-.36-1.95-1.08-2.46-.72-.51-1.87-.76-3.45-.76h-1.13v-4.92h1.13c1.2,0,2.18-.21,2.92-.62,.74-.41,1.12-1.15,1.12-2.21,0-.85-.24-1.51-.71-1.98-.47-.47-1.12-.71-1.95-.71-.9,0-1.56,.27-2,.81-.44,.54-.69,1.22-.76,2.02h-5.91c.09-2.53,.92-4.47,2.48-5.84Z"/></g></g></g></g></g></svg>