<svg width="280" height="208" viewBox="0 0 280 208" fill="none" xmlns="http://www.w3.org/2000/svg">
<path d="M65.1875 56V152C65.1875 154.122 64.0582 156.157 62.048 157.657C60.0379 159.157 57.3115 160 54.4688 160C51.626 160 48.8996 159.157 46.8895 157.657C44.8793 156.157 43.75 154.122 43.75 152V56C43.75 53.8782 44.8793 51.8434 46.8895 50.3431C48.8996 48.8428 51.626 48 54.4688 48C57.3115 48 60.0379 48.8428 62.048 50.3431C64.0582 51.8434 65.1875 53.8782 65.1875 56V56ZM11.5938 48C8.75096 48 6.02461 48.8428 4.01445 50.3431C2.0043 51.8434 0.875 53.8782 0.875 56V152C0.875 154.122 2.0043 156.157 4.01445 157.657C6.02461 159.157 8.75096 160 11.5938 160C14.4365 160 17.1629 159.157 19.173 157.657C21.1832 156.157 22.3125 154.122 22.3125 152V56C22.3125 53.8782 21.1832 51.8434 19.173 50.3431C17.1629 48.8428 14.4365 48 11.5938 48ZM276.481 98.3L147.856 2.29998C146.306 1.2147 144.376 0.479091 142.29 0.178245C140.203 -0.1226 138.045 0.0236171 136.065 0.599981C134.114 1.21199 132.45 2.2413 131.282 3.55818C130.113 4.87505 129.493 6.42058 129.5 7.99998V48H97.3438C94.501 48 91.7746 48.8428 89.7645 50.3431C87.7543 51.8434 86.625 53.8782 86.625 56V152C86.625 154.122 87.7543 156.157 89.7645 157.657C91.7746 159.157 94.501 160 97.3438 160H129.5V200C129.493 201.579 130.113 203.125 131.282 204.442C132.45 205.759 134.114 206.788 136.065 207.4C138.045 207.976 140.203 208.123 142.29 207.822C144.376 207.521 146.306 206.785 147.856 205.7L276.481 109.7C278.494 108.183 279.623 106.135 279.623 104C279.623 101.865 278.494 99.8167 276.481 98.3V98.3Z" fill="white"/>
</svg>
